Coordinates
version=1
nRows=13
nColumns=34
inDegrees=yes

Units are S.I. units (second, meters, Newtons, ...)
Angles are in degrees.

endheader
time	pelvis_tilt	pelvis_list	pelvis_rotation	pelvis_tx	pelvis_ty	pelvis_tz	hip_flexion_r	hip_adduction_r	hip_rotation_r	knee_angle_r	ankle_angle_r	subtalar_angle_r	mtp_angle_r	hip_flexion_l	hip_adduction_l	hip_rotation_l	knee_angle_l	socket_flexion	socket_adduction	socket_rotation	socket_tx	socket_ty	socket_tz	pros_ankle_rx	pros_ankle_ry	pros_ankle_rz	pros_ankle_tx	pros_ankle_ty	pros_ankle_tz	foot_flex	lumbar_extension	lumbar_bending	lumbar_rotation
      0.00000000	     -4.50158878	     -9.47984261	     -7.68107708	     -0.75664693	      1.03714060	      0.32721000	    -18.14414687	     10.41690692	     -3.58615183	     -2.90617225	     -0.73845774	     26.08804236	     36.93103765	     26.38972598	    -10.07036639	      1.87137590	     -3.23247407	      0.00000000	      0.00000000	      0.00000000	      0.00000000	      0.00000000	      0.00000000	      0.00000000	      0.00000000	      0.00000000	      0.00000000	      0.00000000	      0.00000000	      0.03471096	    -15.24067492	      4.28520345	      8.83345057
      0.00416667	     -4.48976713	     -9.49834747	     -7.75269475	     -0.75145672	      1.03610521	      0.32744113	    -18.35829109	     10.35681423	     -3.52391976	     -3.07957494	     -0.76794114	     26.10536854	     36.94267735	     26.46035547	    -10.02573862	      1.90916193	     -3.42564316	      0.00000000	      0.00000000	      0.00000000	      0.00000000	      0.00000000	      0.00000000	      0.00000000	      0.00000000	      0.00000000	      0.00000000	      0.00000000	      0.00000000	     -0.27462302	    -15.21155705	      4.25264837	      8.84857888
      0.00833333	     -4.47816813	     -9.51732136	     -7.83290006	     -0.74606260	      1.03506857	      0.32768786	    -18.56237330	     10.29484128	     -3.44085077	     -3.28666905	     -0.80311301	     26.13215258	     36.96454700	     26.52271272	     -9.98430560	      1.94714931	     -3.62113905	      0.00000000	      0.00000000	      0.00000000	      0.00000000	      0.00000000	      0.00000000	      0.00000000	      0.00000000	      0.00000000	      0.00000000	      0.00000000	      0.00000000	     -0.67156875	    -15.19217291	      4.20049176	      8.88090496
      0.01250000	     -4.46044583	     -9.51369941	     -8.02344308	     -0.74051949	      1.03413028	      0.32818003	    -18.70467120	     10.16709049	     -3.31512505	     -3.64460862	     -0.83168920	     26.20175023	     37.08222994	     26.48796483	     -9.98198821	      1.90896425	     -3.70752678	      0.00000000	      0.00000000	      0.00000000	      0.00000000	      0.00000000	      0.00000000	      0.00000000	      0.00000000	      0.00000000	      0.00000000	      0.00000000	      0.00000000	     -1.23100168	    -15.28885100	      4.02298303	      9.06510719
      0.01666667	     -4.42477958	     -9.51269419	     -8.11717892	     -0.73479767	      1.03310847	      0.32841100	    -18.92033572	     10.06092019	     -3.21647586	     -3.90723186	     -0.85539806	     26.25272396	     37.15103576	     26.53886103	     -9.92153808	      1.90007521	     -3.99461227	      0.00000000	      0.00000000	      0.00000000	      0.00000000	      0.00000000	      0.00000000	      0.00000000	      0.00000000	      0.00000000	      0.00000000	      0.00000000	      0.00000000	     -1.60717855	    -15.27274600	      3.94129576	      9.15775025
      0.02083333	     -4.24469286	     -9.43864337	     -8.41814074	     -0.72901085	      1.03246417	      0.32912673	    -19.14408409	      9.76993012	     -3.21478560	     -4.42081989	     -0.83426239	     26.70268826	     38.27528056	     26.30550196	     -9.89057079	      1.61459587	     -4.17849919	      0.00000000	      0.00000000	      0.00000000	      0.00000000	      0.00000000	      0.00000000	      0.00000000	      0.00000000	      0.00000000	      0.00000000	      0.00000000	      0.00000000	     -2.03213057	    -15.52352483	      3.59228745	      9.81091087
      0.02500000	     -4.22923350	     -9.43581530	     -8.48771227	     -0.72304260	      1.03142070	      0.32938673	    -19.34320147	      9.67707634	     -3.12176194	     -4.66527442	     -0.89399436	     26.71987983	     38.32459203	     26.37985607	     -9.82995508	      1.68226007	     -4.52562683	      0.00000000	      0.00000000	      0.00000000	      0.00000000	      0.00000000	      0.00000000	      0.00000000	      0.00000000	      0.00000000	      0.00000000	      0.00000000	      0.00000000	     -2.44820491	    -15.48591182	      3.52757711	      9.80630200
      0.02916667	     -4.20649772	     -9.42458385	     -8.56055934	     -0.71705704	      1.03041597	      0.32966765	    -19.52117462	      9.57510660	     -3.01742764	     -4.96092795	     -0.97254876	     26.73631965	     38.38084346	     26.45498235	     -9.76498015	      1.73012504	     -4.91734951	      0.00000000	      0.00000000	      0.00000000	      0.00000000	      0.00000000	      0.00000000	      0.00000000	      0.00000000	      0.00000000	      0.00000000	      0.00000000	      0.00000000	     -2.88248297	    -15.46528378	      3.42870504	      9.81725123
      0.03333333	     -4.19735610	     -9.39625516	     -8.67449400	     -0.71106713	      1.02945141	      0.33004132	    -19.63817833	      9.44000296	     -2.92091359	     -5.32629671	     -1.07726994	     26.74640607	     38.47408468	     26.52279013	     -9.71261026	      1.76924412	     -5.32372146	      0.00000000	      0.00000000	      0.00000000	      0.00000000	      0.00000000	      0.00000000	      0.00000000	      0.00000000	      0.00000000	      0.00000000	      0.00000000	      0.00000000	     -3.33521228	    -15.49270934	      3.26640525	      9.85275790
      0.03750000	     -4.17062918	     -9.21530892	     -8.89434426	     -0.70487250	      1.02857597	      0.33065778	    -19.53553633	      9.04711470	     -3.34336309	     -6.05640409	     -1.37438129	     27.38217243	     42.71009804	     26.49978751	     -9.56208370	      1.56751895	     -5.69601753	      0.00000000	      0.00000000	      0.00000000	      0.00000000	      0.00000000	      0.00000000	      0.00000000	      0.00000000	      0.00000000	      0.00000000	      0.00000000	      0.00000000	     -3.77736725	    -15.55326757	      2.82236563	     10.18756859
      0.04166667	     -4.12013728	     -9.19263763	     -8.94212870	     -0.69877188	      1.02771844	      0.33088714	    -19.72243118	      8.93401074	     -3.21429859	     -6.35734066	     -1.46941067	     27.37701565	     42.73106389	     26.56291958	     -9.48397149	      1.60185616	     -6.23534547	      0.00000000	      0.00000000	      0.00000000	      0.00000000	      0.00000000	      0.00000000	      0.00000000	      0.00000000	      0.00000000	      0.00000000	      0.00000000	      0.00000000	     -4.10921250	    -15.51026254	      2.73335039	     10.18762861
      0.04583333	     -4.12321060	     -9.13284217	     -9.09637979	     -0.69284526	      1.02693418	      0.33132455	    -19.68684560	      8.75076711	     -3.10453121	     -6.93569560	     -1.72531783	     27.27874197	     42.83524272	     26.65599697	     -9.43431800	      1.58528911	     -6.78635345	      0.00000000	      0.00000000	      0.00000000	      0.00000000	      0.00000000	      0.00000000	      0.00000000	      0.00000000	      0.00000000	      0.00000000	      0.00000000	      0.00000000	     -4.47925189	    -15.65434016	      2.42129834	     10.22580348
      0.05000000	     -4.09919916	     -9.03965290	     -9.23172523	     -0.68678183	      1.02622207	      0.33173555	    -19.68420020	      8.53296423	     -3.00972911	     -7.50245263	     -1.93972192	     27.20919837	     43.03393449	     26.72015640	     -9.34200705	      1.47880275	     -7.38449470	      0.00000000	      0.00000000	      0.00000000	      0.00000000	      0.00000000	      0.00000000	      0.00000000	      0.00000000	      0.00000000	      0.00000000	      0.00000000	      0.00000000	     -4.76112254	    -15.68456583	      2.16271274	     10.32684213
